<svg width="25" height="25" viewBox="0 0 25 25" fill="none" xmlns="http://www.w3.org/2000/svg">
<path d="M7.29163 21.875C6.71871 21.875 6.22844 21.6712 5.8208 21.2635C5.41316 20.8559 5.20899 20.3653 5.2083 19.7917V6.25C4.91316 6.25 4.66594 6.15 4.46663 5.95C4.26732 5.75 4.16732 5.50278 4.16663 5.20833C4.16594 4.91389 4.26594 4.66667 4.46663 4.46667C4.66732 4.26667 4.91455 4.16667 5.2083 4.16667H9.37496C9.37496 3.87153 9.47496 3.62431 9.67496 3.425C9.87496 3.22569 10.1222 3.12569 10.4166 3.125H14.5833C14.8784 3.125 15.126 3.225 15.326 3.425C15.526 3.625 15.6257 3.87222 15.625 4.16667H19.7916C20.0868 4.16667 20.3343 4.26667 20.5343 4.46667C20.7343 4.66667 20.834 4.91389 20.8333 5.20833C20.8326 5.50278 20.7326 5.75035 20.5333 5.95104C20.334 6.15174 20.0868 6.25139 19.7916 6.25V19.7917C19.7916 20.3646 19.5878 20.8552 19.1802 21.2635C18.7725 21.6719 18.2819 21.8757 17.7083 21.875H7.29163ZM17.7083 6.25H7.29163V19.7917H17.7083V6.25ZM10.4166 17.7083C10.7118 17.7083 10.9593 17.6083 11.1593 17.4083C11.3593 17.2083 11.459 16.9611 11.4583 16.6667V9.375C11.4583 9.07986 11.3583 8.83264 11.1583 8.63333C10.9583 8.43403 10.7111 8.33403 10.4166 8.33333C10.1222 8.33264 9.87496 8.43264 9.67496 8.63333C9.47496 8.83403 9.37496 9.08125 9.37496 9.375V16.6667C9.37496 16.9618 9.47496 17.2094 9.67496 17.4094C9.87496 17.6094 10.1222 17.709 10.4166 17.7083ZM14.5833 17.7083C14.8784 17.7083 15.126 17.6083 15.326 17.4083C15.526 17.2083 15.6257 16.9611 15.625 16.6667V9.375C15.625 9.07986 15.525 8.83264 15.325 8.63333C15.125 8.43403 14.8777 8.33403 14.5833 8.33333C14.2889 8.33264 14.0416 8.43264 13.8416 8.63333C13.6416 8.83403 13.5416 9.08125 13.5416 9.375V16.6667C13.5416 16.9618 13.6416 17.2094 13.8416 17.4094C14.0416 17.6094 14.2889 17.709 14.5833 17.7083Z" fill="#D50202"/>
</svg>
