<svg width="25" height="25" viewBox="0 0 25 25" fill="none" xmlns="http://www.w3.org/2000/svg">
<path d="M19.7792 2.09583L22.9042 5.22083L20.5219 7.60416L17.3969 4.47916L19.7792 2.09583ZM8.33337 16.6667H11.4584L19.049 9.07603L15.924 5.95103L8.33337 13.5417V16.6667Z" fill="#7B4019"/>
<path d="M19.7917 19.7917H8.49792C8.47083 19.7917 8.44271 19.8021 8.41563 19.8021C8.38125 19.8021 8.34687 19.7927 8.31146 19.7917H5.20833V5.20833H12.3406L14.424 3.125H5.20833C4.05937 3.125 3.125 4.05833 3.125 5.20833V19.7917C3.125 20.9417 4.05937 21.875 5.20833 21.875H19.7917C20.3442 21.875 20.8741 21.6555 21.2648 21.2648C21.6555 20.8741 21.875 20.3442 21.875 19.7917V10.7625L19.7917 12.8458V19.7917Z" fill="#7B4019"/>
</svg>
